PathFileType	4	(X/Y/Z)	C:\Users\Basilio\Documents\Thesis Gigler\squatting_fais\c3dfiles\058\SLS_front_pre5\markers_experimental.trc
DataRate	CameraRate	NumFrames	NumMarkers	Units	OrigDataRate	OrigDataStartFrame	OrigNumFrames
200.000000	200.000000	4	61	mm	200.000000	463	1236
Frame#	Time	FHD			LBHD			RBHD			C7			T10			CLAV			LSHO			LUUPA			LMUPA			LDUPA			LLEP			LMEP			LRAD			LUL			LRFIN			RSHO			RUPA1			RMUPA			RDUPA			RLEP			RMEP			RRAD			RUL			RUFIN			LASI			RASI			USACR			LSACR			RSACR			LTHI1			LTHI2			LTHI3			LTHI4			LLFC			LMFC			LTIB1			LTIB2			LTIB3			LTIB4			LLMAL			LMMAL			LHEE			LMT1			LMT2			LMT5			RTHI			RTHI2			RTHI3			RTHI4			RLFC			RMFC			RTIB1			RTIB2			RTIB3			RTIB4			RLMAL			RMMAL			RHEE			RMT1			RMT2			RMT5			
		X1	Y1	Z1	X2	Y2	Z2	X3	Y3	Z3	X4	Y4	Z4	X5	Y5	Z5	X6	Y6	Z6	X7	Y7	Z7	X8	Y8	Z8	X9	Y9	Z9	X10	Y10	Z10	X11	Y11	Z11	X12	Y12	Z12	X13	Y13	Z13	X14	Y14	Z14	X15	Y15	Z15	X16	Y16	Z16	X17	Y17	Z17	X18	Y18	Z18	X19	Y19	Z19	X20	Y20	Z20	X21	Y21	Z21	X22	Y22	Z22	X23	Y23	Z23	X24	Y24	Z24	X25	Y25	Z25	X26	Y26	Z26	X27	Y27	Z27	X28	Y28	Z28	X29	Y29	Z29	X30	Y30	Z30	X31	Y31	Z31	X32	Y32	Z32	X33	Y33	Z33	X34	Y34	Z34	X35	Y35	Z35	X36	Y36	Z36	X37	Y37	Z37	X38	Y38	Z38	X39	Y39	Z39	X40	Y40	Z40	X41	Y41	Z41	X42	Y42	Z42	X43	Y43	Z43	X44	Y44	Z44	X45	Y45	Z45	X46	Y46	Z46	X47	Y47	Z47	X48	Y48	Z48	X49	Y49	Z49	X50	Y50	Z50	X51	Y51	Z51	X52	Y52	Z52	X53	Y53	Z53	X54	Y54	Z54	X55	Y55	Z55	X56	Y56	Z56	X57	Y57	Z57	X58	Y58	Z58	X59	Y59	Z59	X60	Y60	Z60	X61	Y61	Z61	

464	2.315	-279.9210510253907	1694.215454101563	-622.0893554687501	-432.595184326172	1630.583129882813	-692.9386596679689	-270.3689880371094	1702.394653320313	-764.0095214843751	-445.2662048339845	1499.205200195313	-715.4035034179689	-517.2452392578126	1201.721069335938	-710.7229003906251	-295.0184936523438	1433.95166015625	-695.6887817382814	-293.1448364257813	1498.524291992188	-841.465759277344	-140.8291015625	1454.092163085938	-954.4719238281252	-118.519775390625	1490.580932617188	-926.8120117187502	-71.23848724365236	1458.228637695313	-946.4732055664065	4.188190937042237	1466.830322265625	-930.4177246093752	13.75686740875244	1408.115112304688	-900.062683105469	267.8714599609376	1496.871704101563	-827.1289672851565	269.1971740722657	1523.05078125	-904.2943115234377	367.4326782226563	1529.383178710938	-824.8620605468752	-316.6609191894532	1495.675903320313	-550.4543457031251	-163.92724609375	1422.457275390625	-437.5333251953126	-142.4552764892578	1461.476684570313	-460.5023498535157	-95.44113159179689	1434.844970703125	-437.4888610839845	-26.78247261047364	1430.880981445313	-444.8094177246095	-14.70801258087159	1373.729858398438	-496.3230590820314	233.4517059326172	1481.92919921875	-516.7538452148439	239.2504577636719	1493.791625976563	-442.4510803222657	329.4893798828126	1518.634033203125	-512.4397583007814	-365.7292175292969	1008.149780273438	-859.1343994140627	-351.0841369628907	983.012878417969	-623.6132812500001	-547.6351928710939	1067.603881835938	-715.1557617187501	-558.3311767578126	1038.88916015625	-744.6367187500001	-551.2913818359376	1033.047241210938	-687.6364135742189	-264.5166625976563	799.9887695312502	-940.4487915039065	-190.9396667480469	758.9095458984376	-932.2303466796877	-159.4765319824219	784.254089355469	-901.582214355469	-178.195556640625	700.1923828125001	-927.5251464843752	-112.089096069336	625.4921264648439	-917.0697021484377	-95.98336029052736	624.6502075195314	-788.6318359375002	17.29445838928223	557.1508178710939	-880.5567016601565	3.70353126525879	499.0870971679689	-940.414001464844	38.01636123657227	515.0278320312501	-915.9324340820315	92.22655487060548	453.510467529297	-892.7781372070315	173.7973785400391	264.8451538085938	-915.7451171875002	183.7482452392578	288.6631164550782	-825.8623657226565	147.9067535400391	197.8729858398438	-863.9892578125002	329.0786132812501	326.6047973632813	-847.1717529296877	331.2634582519532	333.4990844726563	-893.1075439453127	306.2031250000001	286.6850585937501	-946.010437011719	-369.8651428222657	765.5071411132814	-560.9517211914064	-310.7590942382813	734.1805419921876	-560.3987426757814	-281.6157531738282	747.8242797851564	-562.5493164062501	-299.9617614746094	652.9331665039064	-581.8176879882814	-224.5684967041016	503.4516601562501	-608.8656005859376	-191.7957763671875	511.356903076172	-738.5862426757814	-228.3751373291016	321.8215637207032	-718.3793334960939	-289.1921997070313	252.540023803711	-658.1300048828126	-258.2631530761719	240.2189178466797	-692.7261962890626	-283.9160461425782	206.9398956298829	-732.4725952148439	-374.4820556640626	117.3477172851563	-697.4598999023439	-340.5737915039063	141.9727325439453	-783.3829345703127	-443.925750732422	106.0492858886719	-764.6473999023439	-236.6301269531251	59.36616134643556	-770.2270507812502	-230.7529602050782	60.8213233947754	-717.7931518554689	-282.5840454101563	30.76525878906251	-666.7960205078126	
465	2.32	-279.5521240234376	1693.317138671875	-622.0611572265626	-432.2489624023439	1629.753295898438	-692.9249267578126	-270.0672302246094	1701.25732421875	-763.9813842773439	-445.1280517578126	1497.91015625	-715.2496337890626	-517.4121704101564	1200.699951171875	-710.6819458007814	-295.0608520507813	1432.887329101563	-695.6262207031251	-292.3866271972657	1497.617919921875	-841.5913696289065	-140.7105712890625	1452.849243164063	-954.536315917969	-118.2192001342774	1489.267578125	-926.8121337890627	-71.30836486816408	1457.010375976563	-946.5130615234377	4.380712509155274	1465.556030273438	-930.5883789062502	13.25907135009766	1408.1484375	-899.3940429687502	268.0625000000001	1495.271362304688	-827.170837402344	269.3606872558594	1521.567016601563	-904.420837402344	367.8304443359376	1527.880859375	-824.7746582031252	-316.4349060058594	1494.665771484375	-550.1131591796876	-163.8701477050782	1420.891967773438	-437.5216064453126	-142.3754272460938	1460.237182617188	-460.2600708007814	-95.33197021484376	1433.68310546875	-437.4694213867189	-26.65063476562501	1429.85009765625	-444.651580810547	-14.49722766876221	1372.345092773438	-496.2156066894532	233.7104187011719	1480.278564453125	-516.5454711914064	239.2392272949219	1492.375732421875	-442.281219482422	329.9280090332032	1517.237548828125	-511.9144897460939	-365.5773010253907	1007.081787109375	-859.1500244140627	-351.0250854492188	982.3740844726565	-623.6976318359376	-548.5505981445314	1066.48291015625	-714.7936401367189	-558.3793334960939	1038.014892578125	-744.6638793945314	-551.5059814453126	1031.7607421875	-687.5424804687501	-264.4676208496094	798.995788574219	-940.3378906250002	-191.159652709961	757.9852294921876	-932.1914672851565	-159.1298217773438	783.319274902344	-901.8305664062502	-178.0771484375	699.4005126953126	-927.4338989257815	-111.8395919799805	624.6004028320314	-916.979919433594	-95.26573181152345	623.8719482421876	-788.7464599609377	17.78123092651368	556.6054687500001	-880.8349609375002	3.942813158035279	498.3994750976564	-940.4978637695315	38.3397560119629	514.6129760742189	-916.0876464843752	92.15816497802736	453.0567626953126	-893.1541748046877	174.4621124267578	264.3742065429688	-915.794860839844	184.5206756591797	288.5003967285157	-826.0159912109377	149.2134094238282	197.0773925781251	-864.0003662109377	329.7113342285157	326.4541625976563	-847.4531250000002	331.8757934570313	333.2282104492188	-893.4237060546877	306.8217773437501	286.3193664550782	-946.2327270507815	-369.6250000000001	764.8843994140626	-560.5859375000001	-310.2480468750001	733.3449096679689	-560.3615722656251	-281.0522155761719	747.4895629882814	-562.5686645507814	-299.2113647460938	652.3973999023439	-581.7896728515626	-223.8821105957032	503.2534790039064	-608.8965454101564	-190.9536437988282	510.8354797363282	-738.3729858398439	-227.8987731933594	321.4126892089844	-718.2062377929689	-288.8496704101563	252.5854644775391	-657.9647827148439	-258.0695190429688	240.122055053711	-692.3189086914064	-283.6935424804688	206.9104614257813	-732.4002685546876	-374.4845886230469	117.2862625122071	-697.3341674804689	-340.6484985351563	142.0032348632813	-783.2799072265627	-443.8569946289064	106.0829086303711	-764.5169067382814	-236.6673583984376	59.39146041870119	-770.1651000976565	-230.811019897461	60.80377197265626	-717.7404785156251	-282.5414733886719	30.63477134704591	-666.7521972656251	
466	2.325	-279.1697387695313	1692.124267578125	-622.1279296875001	-432.0501098632814	1628.471801757813	-692.9581909179689	-269.7062988281251	1700.126220703125	-763.9046630859376	-445.074188232422	1497.076782226563	-715.1633300781251	-517.6074829101564	1199.711181640625	-710.6273193359376	-294.8713684082032	1431.611328125	-695.5501098632814	-292.3102111816407	1496.81787109375	-841.467712402344	-140.5928802490235	1451.408447265625	-954.524841308594	-118.2199783325196	1488.065063476563	-926.8227539062502	-71.26681518554689	1455.551391601563	-946.4534301757815	4.164769649505616	1464.20556640625	-930.4963989257815	13.42070293426514	1406.52734375	-899.3655395507815	267.9600219726563	1493.749755859375	-827.5129394531252	269.4704284667969	1520.083251953125	-904.5955810546877	368.0508728027344	1526.041137695313	-825.449890136719	-316.0329589843751	1493.522583007813	-550.1416625976564	-163.6869201660157	1419.993408203125	-437.3489379882814	-142.2236785888672	1458.931884765625	-460.2742309570314	-95.19010162353517	1432.250854492188	-437.3687438964845	-26.35811424255372	1428.383056640625	-444.6781616210939	-14.37392711639405	1371.097290039063	-496.1397705078126	234.5345306396485	1479.2216796875	-517.1150512695314	239.5473632812501	1490.973999023438	-442.2438964843751	330.0951843261719	1515.999755859375	-511.6201171875001	-365.5895690917969	1006.102111816406	-859.080505371094	-351.0422973632813	981.924987792969	-623.7669067382814	-548.5807495117189	1065.478637695313	-714.7575683593751	-558.6049804687501	1036.73388671875	-744.3873901367189	-551.7041625976564	1030.93798828125	-687.4139404296876	-264.6308593750001	797.920104980469	-940.2019042968752	-191.1925506591797	757.1612548828126	-932.184753417969	-159.1338958740235	782.3662109375002	-901.8562622070315	-178.2008666992188	698.5510864257814	-927.3309326171877	-111.6786346435547	623.8042602539064	-917.007507324219	-94.51052093505861	623.1829833984376	-788.7219848632815	18.42014122009278	555.9259643554689	-881.0222167968752	4.217394828796388	497.6646118164064	-940.5571899414065	39.08424377441407	513.9552001953126	-916.1914672851565	92.80059051513673	452.5079040527345	-893.3988037109377	175.0437622070313	264.0792236328126	-915.821716308594	185.5469970703125	288.0072021484376	-826.2229614257815	149.8180236816407	196.8083496093751	-863.8843994140627	330.5325012207032	326.1945190429688	-847.7418212890627	332.4425048828126	333.0380554199219	-893.7651977539065	307.3976440429688	285.9995727539063	-946.4625244140627	-369.2362365722657	764.3176269531251	-560.2260742187501	-309.7845764160157	732.7275390625001	-560.1597900390626	-280.4506835937501	746.8410034179689	-562.4862670898439	-298.6608276367188	651.5925292968751	-581.5395507812501	-223.1717987060547	502.9921875000001	-608.9581909179689	-190.2984924316407	510.4206848144532	-738.2175903320314	-227.4034881591797	321.0645751953126	-717.9575195312501	-288.7415466308594	252.4859619140626	-657.8325195312501	-258.0584716796876	240.0390930175782	-692.3576660156251	-283.4782104492188	206.9846343994141	-732.2310791015626	-374.4308776855469	117.2540054321289	-697.2075805664064	-340.5981750488282	142.0546417236328	-783.1778564453127	-443.8565368652345	106.1028594970703	-764.4655761718751	-236.6614837646485	59.46537399291994	-770.0969848632815	-230.7879180908204	60.77816390991212	-717.6998291015626	-282.5251464843751	30.50408935546876	-666.7704467773439	
467	2.33	-278.7843933105469	1690.975952148438	-622.0579833984376	-431.7549743652345	1627.529541015625	-692.8920288085939	-269.7077331542969	1698.925903320313	-763.8483886718751	-444.8280639648439	1496.00537109375	-715.1514892578126	-517.7799072265626	1198.681640625	-710.5079345703126	-294.6648254394532	1430.54052734375	-695.5727539062501	-291.9980163574219	1495.366088867188	-841.5186157226565	-140.5915832519532	1450.166259765625	-954.5061035156252	-118.0904998779297	1486.773803710938	-926.811950683594	-71.0944290161133	1454.482666015625	-946.699401855469	4.593938827514649	1462.894775390625	-930.899597167969	13.38164520263672	1405.18701171875	-899.4517211914065	268.0732116699219	1492.298217773438	-827.7778930664065	269.6521911621094	1518.5556640625	-904.823181152344	368.1262207031251	1524.352172851563	-825.6103515625002	-315.8151855468751	1492.441650390625	-549.5739135742189	-163.6453552246094	1418.532348632813	-437.2831115722657	-142.1935424804688	1457.873779296875	-460.0888977050782	-95.08556365966798	1431.035888671875	-437.2635192871095	-26.19427108764649	1427.286376953125	-444.5499572753907	-14.37325096130371	1369.8056640625	-496.148651123047	234.2320556640626	1477.61865234375	-516.3973999023439	239.4437255859376	1488.97998046875	-442.0263977050782	330.6631774902344	1514.537475585938	-511.5417785644532	-365.9309997558594	1005.05908203125	-858.986267089844	-351.0947570800782	980.7300415039065	-623.6191406250001	-548.7861938476564	1064.388916015625	-714.5524902343751	-558.6683349609376	1035.78662109375	-744.3757934570314	-551.8350830078126	1029.969604492188	-687.2855834960939	-264.7550659179688	796.9819335937502	-940.0161743164065	-190.9442596435547	756.1676635742189	-932.1338500976565	-158.8166656494141	781.7502441406252	-901.9877929687502	-177.8917694091797	697.7704467773439	-927.2144775390627	-111.3734664916992	623.0430297851564	-916.9734497070315	-94.17337799072267	622.6136474609376	-788.6447753906252	18.65094947814942	555.3919067382814	-881.1430664062502	4.576570510864259	496.8526611328126	-940.4682617187502	39.60065078735352	513.0336303710939	-916.3115234375002	92.92237854003908	452.0533447265626	-893.7132568359377	175.7900543212891	263.5632934570313	-915.8212890625002	185.9892272949219	287.6221313476563	-826.3295898437502	150.5389404296875	196.4479064941407	-863.819763183594	331.2723693847657	325.9047851562501	-848.1021728515627	333.0513000488282	332.7463073730469	-894.0975341796877	308.0729064941407	285.6527099609376	-946.7611083984377	-368.5954284667969	763.5515136718751	-559.9958496093751	-309.3633728027344	732.3118896484376	-559.9094848632814	-280.1538085937501	746.5999755859376	-562.2152099609376	-297.9616699218751	650.9666137695314	-581.4970092773439	-222.5827636718751	502.5677490234376	-608.9395141601564	-189.8770904541016	510.1876220703126	-738.2062377929689	-226.9214477539063	320.8053894042969	-717.8781127929689	-288.2922058105469	252.303695678711	-657.7707519531251	-257.7649536132813	239.7207641601563	-692.1663208007814	-283.3721923828126	206.7467651367188	-732.1381835937501	-374.3375244140626	117.2724914550782	-697.1130371093751	-340.5324401855469	142.1141967773438	-783.058044433594	-443.8859252929689	106.0997085571289	-764.4112548828126	-236.6516265869141	59.4708938598633	-770.089538574219	-230.7732086181641	60.7812957763672	-717.6825561523439	-282.5421142578126	30.4967212677002	-666.7669677734376	
